<?xml version="1.0" standalone="no"?>
<!DOCTYPE svg PUBLIC "-//W3C//DTD SVG 20010904//EN"
 "http://www.w3.org/TR/2001/REC-SVG-20010904/DTD/svg10.dtd">
<svg version="1.0" xmlns="http://www.w3.org/2000/svg"
 width="980.000000pt" height="980.000000pt" viewBox="0 0 980.000000 980.000000"
 preserveAspectRatio="xMidYMid meet">

<g transform="translate(0.000000,980.000000) scale(0.100000,-0.100000)"
fill="#000000" stroke="none">
<path d="M4925 7727 c-71 -40 -104 -142 -71 -220 17 -42 66 -83 114 -97 20 -5
139 -10 265 -10 125 0 227 -3 227 -8 0 -11 -1485 -1492 -1496 -1492 -5 0 -29
22 -55 48 -25 26 -148 155 -274 286 -137 142 -243 244 -262 252 -48 20 -104
17 -151 -8 -35 -19 -347 -320 -1355 -1308 -82 -80 -157 -162 -168 -182 -72
-140 78 -297 224 -234 31 13 218 193 996 954 204 199 374 362 379 362 5 0 132
-128 283 -285 151 -156 288 -291 306 -300 36 -17 99 -20 140 -5 16 6 393 375
861 843 574 575 832 826 833 812 0 -11 0 -119 -1 -241 -1 -184 2 -228 16 -262
55 -139 248 -152 314 -22 19 37 20 61 20 525 0 464 -1 488 -20 525 -11 21 -34
49 -52 62 l-33 23 -500 2 -500 3 -40 -23z"/>
<path d="M4024 5341 c-47 -22 -80 -59 -94 -110 -8 -24 -10 -519 -8 -1552 l3
-1515 25 -37 c13 -20 41 -45 61 -56 36 -20 51 -21 483 -21 355 0 453 3 479 14
43 17 84 67 97 116 7 26 9 522 8 1542 -3 1648 1 1528 -60 1585 -55 52 -65 53
-525 53 -395 0 -431 -2 -469 -19z m696 -1636 l0 -1305 -225 0 -225 0 0 1305 0
1305 225 0 225 0 0 -1305z"/>
<path d="M6800 5354 c-605 -53 -1119 -411 -1374 -956 -108 -230 -150 -426
-150 -698 0 -304 67 -564 206 -807 226 -394 592 -678 1016 -789 401 -104 811
-60 1181 125 803 404 1132 1406 726 2213 -244 486 -711 824 -1241 898 -88 12
-295 20 -364 14z m387 -373 c510 -105 906 -502 1019 -1021 26 -119 26 -390 1
-510 -117 -545 -540 -951 -1081 -1037 -145 -23 -365 -14 -503 21 -570 143
-965 617 -999 1201 -31 520 267 1020 741 1244 257 123 546 158 822 102z"/>
<path d="M6881 4790 c-86 -20 -131 -93 -131 -212 l0 -78 -218 0 c-212 0 -219
-1 -268 -25 -35 -17 -57 -37 -72 -64 -21 -38 -22 -47 -22 -394 0 -373 3 -400
47 -438 51 -46 72 -49 308 -49 l225 0 0 -135 0 -135 -207 0 c-115 0 -225 -5
-246 -11 -46 -12 -100 -58 -117 -99 -20 -47 -8 -132 23 -173 48 -63 68 -67
321 -67 l226 0 0 -74 c0 -86 13 -130 49 -170 79 -86 224 -69 278 34 19 35 23
59 23 127 l0 83 224 0 c239 0 270 5 312 52 44 48 45 53 44 430 0 344 -1 363
-21 397 -11 20 -36 48 -56 61 -36 25 -40 25 -267 27 l-231 3 -3 134 -3 135
240 3 c266 3 268 4 319 78 48 71 20 195 -55 241 -37 23 -47 24 -270 27 l-233
3 0 80 c0 80 -12 121 -49 163 -35 40 -110 60 -170 46z m-133 -776 l-3 -135
-110 -1 -110 -1 -3 137 -3 136 116 0 116 0 -3 -136z m590 -621 l3 -133 -121 0
-120 0 0 135 0 136 118 -3 117 -3 3 -132z"/>
<path d="M2663 5246 c-17 -8 -44 -34 -60 -57 l-28 -43 -3 -1479 -2 -1480 21
-44 c14 -29 35 -52 64 -68 l43 -26 459 3 460 3 37 29 c71 54 66 -60 66 1579
l0 1484 -22 33 c-13 18 -36 43 -51 54 -28 21 -39 21 -490 23 -378 2 -468 0
-494 -11z m715 -1588 l2 -1258 -230 0 -230 0 0 1260 0 1260 228 -2 227 -3 3
-1257z"/>
<path d="M1336 4490 c-37 -12 -85 -56 -102 -97 -12 -27 -14 -219 -14 -1121 l0
-1089 23 -44 c15 -27 38 -53 63 -66 l39 -23 461 3 461 2 35 27 c73 56 68 -28
68 1194 l0 1097 -25 43 c-16 28 -39 49 -68 63 -42 20 -56 21 -478 20 -239 0
-447 -5 -463 -9z m692 -1217 l2 -873 -230 0 -230 0 0 875 0 875 228 -2 227 -3
3 -872z"/>
</g>
</svg>
